<svg width="37" height="37" viewBox="0 0 37 37" fill="none" xmlns="http://www.w3.org/2000/svg">
<path d="M30.8334 6.16669H6.16671C4.47087 6.16669 3.09879 7.55419 3.09879 9.25002L3.08337 27.75C3.08337 29.4459 4.47087 30.8334 6.16671 30.8334H30.8334C32.5292 30.8334 33.9167 29.4459 33.9167 27.75V9.25002C33.9167 7.55419 32.5292 6.16669 30.8334 6.16669ZM30.2167 12.7188L19.3171 19.5329C18.8238 19.8413 18.1763 19.8413 17.683 19.5329L6.78337 12.7188C6.62879 12.632 6.49342 12.5147 6.38545 12.3741C6.27749 12.2335 6.19918 12.0725 6.15526 11.9007C6.11134 11.729 6.10273 11.5501 6.12995 11.3749C6.15716 11.1997 6.21964 11.0319 6.3136 10.8816C6.40756 10.7312 6.53104 10.6015 6.67658 10.5003C6.82211 10.3991 6.98668 10.3284 7.1603 10.2926C7.33393 10.2569 7.51302 10.2567 7.68672 10.2921C7.86042 10.3275 8.02513 10.3978 8.17087 10.4988L18.5 16.9584L28.8292 10.4988C28.975 10.3978 29.1397 10.3275 29.3134 10.2921C29.4871 10.2567 29.6661 10.2569 29.8398 10.2926C30.0134 10.3284 30.178 10.3991 30.3235 10.5003C30.469 10.6015 30.5925 10.7312 30.6865 10.8816C30.7804 11.0319 30.8429 11.1997 30.8701 11.3749C30.8974 11.5501 30.8887 11.729 30.8448 11.9007C30.8009 12.0725 30.7226 12.2335 30.6146 12.3741C30.5067 12.5147 30.3713 12.632 30.2167 12.7188Z" fill="black"/>
</svg>
