<svg width="37" height="37" viewBox="0 0 37 37" fill="none" xmlns="http://www.w3.org/2000/svg">
<path d="M18.5 0C16.0705 0 13.6649 0.490397 11.4204 1.44319C9.17583 2.39598 7.13641 3.79252 5.41852 5.55305C1.9491 9.10861 0 13.931 0 18.9593C0 26.7306 4.56613 33.4094 11.0869 36.3498C12.1097 36.8109 13.7607 37.2652 13.869 36.1485C13.873 36.1063 13.875 36.0642 13.875 36.0227C13.875 34.3782 12.2981 33.2661 10.697 32.8912C8.26552 32.3218 7.659 30.278 7.659 30.278C7.36859 29.5275 7.03726 28.9647 6.72674 28.5488C6.1085 27.7208 4.2102 26.6964 5.20455 26.4153C5.4449 26.3474 5.735 26.3534 5.735 26.3534C7.585 26.4861 8.5655 28.3062 8.5655 28.3062C9.94523 30.7766 12.1407 30.5024 13.4037 30.087C13.7481 29.9738 13.9958 29.5222 14.0887 29.1717C14.3157 28.3152 13.7437 27.1618 12.8857 26.9406C9.58512 26.0895 6.697 23.9241 6.697 18.0113C6.697 17.04 6.84675 16.1576 7.12625 15.3565C7.71392 13.6722 8.25248 12.5674 8.2295 10.7837C8.21142 9.38123 9.63368 7.70712 10.9471 8.19908C11.1069 8.25892 11.276 8.32782 11.4546 8.40704C13.0724 9.12471 14.8574 9.46341 16.6174 9.276C17.2416 9.20953 17.8723 9.1763 18.5 9.1763C19.1277 9.1763 19.7584 9.20953 20.3826 9.276C22.1426 9.46341 23.9276 9.12471 25.5454 8.40704C25.724 8.32782 25.8931 8.25892 26.0529 8.19908C27.3663 7.70712 28.7886 9.38123 28.7705 10.7837C28.7475 12.5674 29.2861 13.6722 29.8737 15.3565C30.1532 16.1576 30.303 17.04 30.303 18.0113C30.303 23.0306 28.2238 25.3362 25.5741 26.4366C24.2068 27.0044 23.125 29.3473 23.125 30.8278V36.0227C23.125 36.1176 23.1352 36.2159 23.1578 36.3118C23.3938 37.3123 24.8613 36.8215 25.8009 36.4047C32.389 33.4817 37 26.7823 37 18.9593C37 16.4695 36.5215 14.0041 35.5918 11.7039C34.6621 9.40364 33.2994 7.31358 31.5815 5.55305C29.8636 3.79252 27.8242 2.39598 25.5796 1.44319C23.3351 0.490397 20.9295 0 18.5 0Z" fill="black"/>
</svg>
