<svg width="94" height="94" viewBox="0 0 94 94" fill="none" xmlns="http://www.w3.org/2000/svg">
<g clip-path="url(#clip0_16_229)">
<path d="M94 18.4731L85.4363 86.4394L46.9425 93.9999L8.55457 86.45L0 18.4731H94Z" fill="#264DE4"/>
<path d="M78.1049 82.1115L85.4231 24.0312H47V88.221L78.1049 82.1115Z" fill="#2965F1"/>
<path d="M19.6112 49.2429L20.6659 57.5799H47V49.2429H19.6112ZM47 32.3684H17.4919L18.5617 40.7056H47V32.3684ZM47 79.5693V70.8952L46.9484 70.9049L33.8425 68.3978L33.0047 61.7486H21.1917L22.8404 74.839L46.9458 79.5799L47 79.5693Z" fill="#EBEBEB"/>
<path d="M22.1223 0H36.3751V4.22266H28.0825V8.44531H36.3751V12.668H22.1223V0ZM39.2257 0H53.4786V3.67188H45.186V4.40625H53.4786V12.8516H39.2257V8.99609H47.5183V8.26172H39.2257V0ZM56.3291 0H70.582V3.67188H62.2894V4.40625H70.582V12.8516H56.3291V8.99609H64.6217V8.26172H56.3291V0Z" fill="black"/>
<path d="M61.4501 57.5799L60.0841 68.3924L46.9593 70.9022V79.5759L71.084 74.839L71.261 73.4304L74.0263 51.4816L74.3134 49.2429L76.4379 32.3684H46.9593V40.7056H63.5414L62.4706 49.2429H46.9593V57.5799H61.4501Z" fill="white"/>
</g>
<defs>
<clipPath id="clip0_16_229">
<rect width="94" height="94" fill="white"/>
</clipPath>
</defs>
</svg>
