<svg width="94" height="94" viewBox="0 0 94 94" fill="none" xmlns="http://www.w3.org/2000/svg">
<path d="M66.488 70.9771C66.1944 70.6831 66.2313 69.7766 67.2221 66.9352C67.6079 65.8085 68.4891 63.9227 70.0133 62.1343C70.1967 62.8692 70.3074 63.5791 70.2884 64.2408C70.2705 68.6499 67.9205 70.2913 66.488 70.9771ZM53.9292 74.7982C53.5253 75.0681 53.158 75.2638 52.9929 75.1173C52.8643 75.019 53.158 74.6517 53.158 74.6517C53.158 74.6517 55.1961 71.7366 56.0038 70.3896C56.4629 69.606 57.0134 68.6995 57.6012 67.6706V67.9646C57.6012 71.4913 55.0675 73.843 53.9292 74.7982ZM37.6428 64.4123C36.7065 67.4744 34.7235 75.337 33.5301 74.8966C32.5017 74.5288 31.8776 68.5766 33.3279 62.6977C34.0623 59.7333 35.623 56.2067 36.541 54.8347C38.0286 52.6299 39.6441 51.8949 40.0483 52.8014C40.5255 53.9773 38.2305 62.502 37.6428 64.4123ZM17.9048 82.3181C15.2058 86.2622 11.4051 87.7561 9.78929 86.4824C8.04503 85.1354 8.72414 79.3297 12.0477 75.1414C14.0674 72.5939 16.693 70.2421 18.419 68.7969C18.8045 68.4788 19.3921 68.0132 20.0898 67.4499C20.2 67.3521 20.2734 67.3029 20.2734 67.3029C20.4019 67.2051 20.5488 67.0822 20.6957 66.9597C21.9259 72.9366 20.7508 78.1789 17.9048 82.3181ZM80.9197 53.9773C77.6331 54.0024 74.7872 55.0553 72.4002 56.6231C71.519 54.2964 70.6373 52.2626 70.4908 50.7446C70.3259 48.9807 70.124 47.9027 70.3259 45.7964C70.5271 43.6895 71.4458 40.7011 71.4458 40.4561C71.4273 40.2357 71.2434 39.1579 69.3524 39.1334C67.4614 39.1089 65.8271 39.6234 65.6431 40.2847C65.4597 40.946 65.0924 42.4647 64.8542 44.0325C64.5238 46.335 61.0717 54.492 59.1069 58.7787C58.4639 57.1127 57.9137 55.6434 57.803 54.4669C57.638 52.7036 57.436 51.6255 57.638 49.5194C57.8399 47.4126 58.758 44.4244 58.758 44.1794C58.7395 43.959 58.5562 42.8812 56.6652 42.8567C54.7738 42.8322 53.1399 43.3466 52.956 44.0079C52.7725 44.6693 52.5706 46.237 52.1668 47.7557C51.7809 49.2744 47.1907 62.8938 45.9971 66.4456C45.3914 68.258 44.8589 69.7034 44.473 70.6831C44.0876 71.6628 44.4551 70.7568 44.4182 70.8547C44.0876 71.6874 43.9041 72.153 43.9041 72.153V72.1775C43.6469 72.7901 43.3717 73.3775 43.2427 73.3775C43.1509 73.3775 42.9674 71.7366 43.2795 69.4832C43.959 64.7555 45.6113 57.3826 45.5933 57.1132C45.5933 56.9908 45.905 55.692 44.528 55.0308C43.1878 54.3696 42.7106 55.4717 42.6001 55.4717C42.4899 55.4717 42.3981 55.8641 42.3981 55.8641C42.3981 55.8641 43.8853 47.5603 39.5523 47.5603C36.8349 47.5603 33.0892 51.5041 31.2347 55.1045C30.0597 55.9619 27.5626 57.7744 24.9186 59.7098C23.9087 60.4447 22.8621 61.2283 21.8706 61.9386L21.6689 61.6447C16.4176 54.1734 6.70462 48.8825 7.10859 38.8395C7.25548 35.1897 8.21025 25.563 25.7635 13.9036C40.1401 4.3505 51.6527 6.97093 53.6536 12.8011C56.4997 21.1295 47.5028 36.6104 32.5571 38.8395C26.8652 39.6968 23.8722 36.7574 23.1195 35.6551C22.33 34.5038 22.2199 34.4548 21.9261 34.6753C21.4487 35.0182 21.7424 36.0471 21.9261 36.6594C22.3668 38.2026 24.2028 40.946 27.3242 42.3178C30.0598 43.518 36.7434 44.1794 44.8224 40.0153C53.8743 35.3367 60.9431 22.3542 58.8681 11.5032C56.757 0.455246 43.0227 -3.16996 30.0416 2.97874C22.3115 6.65318 13.9389 12.3849 7.91648 19.9047C0.75568 28.821 -0.382705 36.6104 0.094681 39.8438C1.76572 51.3812 13.6818 58.9011 18.4557 64.4615C18.217 64.6326 17.9967 64.8042 17.7947 64.9511C15.4078 66.5188 6.31904 72.8633 4.04228 79.5745C1.47176 87.1682 4.44626 92.6308 6.42925 93.3657C12.5618 95.6437 18.8413 91.5532 22.2381 84.8169C25.6163 78.0806 25.2126 69.3361 23.6519 65.3434L23.5966 65.1965L25.4694 63.7266C26.6814 62.7714 27.8749 61.8895 28.9213 61.1299C28.3339 63.2611 27.9114 65.7839 27.6913 69.4581C27.4342 73.7693 28.7562 79.3543 30.5005 81.5586C31.2716 82.5138 32.1897 82.5384 32.7589 82.5384C34.7786 82.5384 35.6967 80.3095 36.7065 77.6396C37.9549 74.3818 39.0567 70.6093 39.0567 70.6093C39.0567 70.6093 37.6797 80.8237 41.4437 80.8237C42.8208 80.8237 44.1978 78.4478 44.8221 77.2233V77.2478C44.8221 77.2478 44.8589 77.1741 44.9322 77.0025C45.0093 76.8505 45.0826 76.6955 45.1526 76.5375V76.4883C45.7035 75.2146 46.9334 72.2999 48.7696 67.4744C51.1379 61.2523 53.4152 53.4631 53.4152 53.4631C53.4152 53.4631 53.6355 55.3739 54.3146 58.5093C54.7185 60.371 55.5999 62.4037 56.279 64.3878C55.7285 65.4166 55.398 66.0046 55.398 66.0046L55.416 66.0292C54.9757 66.8133 54.4797 67.646 53.966 68.4788C52.093 71.4672 49.853 74.8725 49.5593 75.8522C49.2103 77.003 49.2837 77.8604 49.9632 78.5466C50.4588 79.0363 51.3402 79.134 52.2766 79.0363C53.966 78.8893 55.1412 78.3259 55.7285 77.9828C56.6464 77.5418 57.6934 76.8806 58.7032 75.9009C60.5388 74.0884 61.6588 71.5163 61.5492 68.087C61.4938 66.2012 61.0348 64.3396 60.4656 62.5758C60.6311 62.2572 60.796 61.9386 60.9615 61.596C63.8623 55.9373 66.1028 49.7158 66.1028 49.7158C66.1028 49.7158 66.323 51.6265 67.0018 54.7619C67.3507 56.3542 68.0491 58.0934 68.6731 59.8081C65.9557 62.7719 64.2481 66.2012 63.6605 68.4548C62.5774 72.619 63.4217 74.5053 65.0191 74.9462C65.7354 75.1419 66.7636 74.7009 67.5347 74.2604C68.4891 73.8436 69.6459 73.1332 70.7111 72.0802C72.5473 70.2677 74.3096 67.7444 74.218 64.3396C74.1626 62.7719 73.8506 61.2288 73.4285 59.759C75.7422 58.4852 78.7346 57.7503 82.5356 58.3628C90.7062 59.6366 92.3221 66.446 92.0101 69.2875C91.6981 72.1294 89.9905 73.6971 89.4213 74.1867C88.8515 74.6522 88.6681 74.8238 88.7229 75.1665C88.7967 75.6812 89.0539 75.6566 89.5493 75.5588C90.2287 75.4117 93.8457 73.2315 93.9927 67.9902C94.213 61.2529 89.4213 53.9041 80.9197 53.9773Z" fill="#D0469D"/>
</svg>
